<svg version="1.1" id="Layer_1" xmlns="http://www.w3.org/2000/svg" x="0" y="0" viewBox="0 0 1913 1000" style="enable-background:new 0 0 1913 1000" xml:space="preserve"><style>.st2{fill:#f0f0f5}</style><g id="logo"><path id="inner" d="M739.38 808.41H392.64L219.27 508.12l173.37-300.29h346.74l173.37 300.29-173.37 300.29zm-314.3-56.19h281.86l140.93-244.1-140.93-244.1H425.08l-140.93 244.1 140.93 244.1z" style="fill:#bc3c47"/><path id="outer" d="M753.58 924.33H378.44a99.73 99.73 0 0 1-86.13-49.73L104.74 549.73a99.74 99.74 0 0 1 0-99.46L292.31 125.4a99.74 99.74 0 0 1 86.13-49.73h375.13a99.73 99.73 0 0 1 86.13 49.73l187.57 324.87a99.72 99.72 0 0 1 0 99.45L839.71 874.6a99.72 99.72 0 0 1-86.13 49.73zM379.19 823.58h373.63L939.64 500 752.83 176.42H379.19L192.38 500l186.81 323.58z" style="fill:#e84754"/></g><g id="text"><path class="st2" d="M1364.14 624c-16.51 0-31.95-2.87-46.33-8.6s-26.89-13.6-37.54-23.6-19.03-21.66-25.16-35a100.41 100.41 0 0 1-9.18-42.4c0-15.2 3.12-29.53 9.38-43a109.49 109.49 0 0 1 25.56-35 123.31 123.31 0 0 1 37.54-23.4c14.24-5.73 29.49-8.6 45.72-8.6s31.54 2.94 45.92 8.8c14.38 5.87 26.89 13.8 37.54 23.8a111.38 111.38 0 0 1 25.16 35 100.49 100.49 0 0 1 9.19 42.4c0 15.2-3.13 29.47-9.39 42.8a111.47 111.47 0 0 1-25.36 34.8c-10.65 9.87-23.16 17.67-37.54 23.4s-29.54 8.6-45.51 8.6zm.2-165.2c-8.8 0-16.74 1.59-23.8 4.78a55.08 55.08 0 0 0-18 12.76 60.73 60.73 0 0 0-11.6 17.94 50.95 50.95 0 0 0-4.2 19.92 55.27 55.27 0 0 0 15 37.87c4.93 5.31 11 9.56 18.2 12.75 7.2 3.19 15.33 4.78 24.4 4.78 9.06 0 17.13-1.59 24.2-4.78a55.42 55.42 0 0 0 18-12.75 58.6 58.6 0 0 0 11.4-17.74c2.66-6.51 4-13.22 4-20.13 0-6.64-1.4-13.28-4.2-19.92a61.2 61.2 0 0 0-11.6-17.94 55.44 55.44 0 0 0-18-12.76c-7.07-3.19-15-4.78-23.8-4.78zM1578.34 412.4v221.2c0 12-2.27 23.53-6.8 34.6a89.1 89.1 0 0 1-19.6 29.4 89.1 89.1 0 0 1-29.4 19.6 91.54 91.54 0 0 1-35 6.8c-6.4 0-12.73-.47-19-1.4a85.76 85.76 0 0 1-17.8-4.6l12.4-54.4c7.2 4 14.8 6 22.8 6 9.34 0 17.06-2.67 23.2-8 6.13-5.34 9.2-11.74 9.2-19.2v-230h60zm-30.2-92.4c9.81 0 18.16 3.47 25.06 10.4 6.89 6.94 10.34 15.34 10.34 25.2 0 9.87-3.45 18.27-10.34 25.2-6.89 6.94-15.24 10.4-25.06 10.4s-18.17-3.46-25.06-10.4c-6.89-6.93-10.34-15.33-10.34-25.2 0-9.86 3.44-18.26 10.34-25.2a34.04 34.04 0 0 1 25.06-10.4zM1716.34 487.6c9.86 2.4 20 5.2 30.4 8.4s19.8 7.47 28.2 12.8a72.2 72.2 0 0 1 20.8 19.8c5.46 7.87 8.2 17.67 8.2 29.4 0 12.54-3.07 23-9.2 31.4a71.39 71.39 0 0 1-23.2 20.4 102.24 102.24 0 0 1-31 11 178.67 178.67 0 0 1-33 3.2c-20.8 0-39.27-4.74-55.4-14.2-16.14-9.46-29.8-22.86-41-40.2l52-27.6c5.33 9.07 12.33 15.94 21 20.6 8.66 4.67 17.26 7 25.8 7 12.26 0 21.13-.93 26.6-2.8 5.46-1.86 8.2-4.4 8.2-7.6 0-2.66-1.8-5-5.4-7-3.6-2-7.74-3.8-12.4-5.4-4.67-1.6-9.27-2.86-13.8-3.8-4.54-.93-7.74-1.53-9.6-1.8a272.88 272.88 0 0 1-29.2-7.4c-9.87-3.06-18.8-7.2-26.8-12.4s-14.6-11.6-19.8-19.2-7.8-17-7.8-28.2c0-11.46 2.46-21.53 7.4-30.2a69.21 69.21 0 0 1 19.4-21.8 85.92 85.92 0 0 1 27.4-13.2 113.82 113.82 0 0 1 31.4-4.4c19.46 0 37.4 4.54 53.8 13.6 16.4 9.07 30.2 21.47 41.4 37.2l-48.4 30.4c-5.87-9.33-12.87-16.13-21-20.4-8.14-4.26-16.07-6.4-23.8-6.4-8.8 0-15.74 1.2-20.8 3.6-5.07 2.4-7.6 5.47-7.6 9.2 0 1.6 1.2 3.14 3.6 4.6a62.1 62.1 0 0 0 9 4.4c3.6 1.47 7.6 2.8 12 4 4.4 1.2 8.6 2.2 12.6 3z"/></g></svg>