<svg xmlns="http://www.w3.org/2000/svg" viewBox="0 0 1000 1000" style="enable-background:new 0 0 1000 1000" xml:space="preserve"><path d="M673.37 800.29H326.63L153.26 500l173.37-300.29h346.74L846.74 500 673.37 800.29zm-314.3-56.19h281.86L781.86 500 640.93 255.9H359.07L218.14 500l140.93 244.1z" style="fill:#bc3c47"/><path d="M687.57 924.33H312.43a99.73 99.73 0 0 1-86.13-49.73L38.73 549.73a99.74 99.74 0 0 1 0-99.46L226.3 125.4a99.74 99.74 0 0 1 86.13-49.73h375.13a99.73 99.73 0 0 1 86.13 49.73l187.57 324.87a99.72 99.72 0 0 1 0 99.45L773.7 874.6a99.72 99.72 0 0 1-86.13 49.73zM313.18 823.58h373.63L873.63 500 686.82 176.42H313.18L126.37 500l186.81 323.58z" style="fill:#e84754"/></svg>